<svg width="24" height="24" viewBox="0 0 24 24" fill="none" xmlns="http://www.w3.org/2000/svg">
<path d="M0 19.64V18.3069H23.3827V19.64H0ZM1.02649 16.4605V16.1539C1.02649 13.5321 1.91967 11.2645 3.70604 9.35106C5.49418 7.43938 7.71158 6.29736 10.3582 5.92497V5.33441C10.3582 4.97714 10.4911 4.66563 10.7568 4.3999C11.0226 4.13328 11.3341 3.99997 11.6913 3.99997C12.0486 3.99997 12.3601 4.13328 12.6259 4.3999C12.8916 4.66652 13.0244 4.97758 13.0244 5.33308V5.92364C15.6773 6.29691 17.8956 7.43938 19.6793 9.35106C21.463 11.2627 22.3553 13.5303 22.3562 16.1539V16.4605H1.02649ZM2.45292 15.1274H20.9298C20.7218 12.9536 19.7233 11.0854 17.9343 9.52303C16.1453 7.96063 14.0643 7.18032 11.6913 7.18209C9.31841 7.18387 7.23877 7.96418 5.4524 9.52303C3.66604 11.0819 2.66621 12.95 2.45292 15.1274Z" fill="#383913"/>
</svg>
