<svg width="24" height="25" viewBox="0 0 24 25" fill="none" xmlns="http://www.w3.org/2000/svg">
<path d="M7.1 18.8C6.7134 19.1866 6.0866 19.1866 5.7 18.8V18.8C5.3134 18.4134 5.3134 17.7866 5.7 17.4L9.89289 13.2071C10.2834 12.8166 10.2834 12.1834 9.89289 11.7929L5.7 7.6C5.3134 7.2134 5.3134 6.5866 5.7 6.2V6.2C6.0866 5.8134 6.7134 5.8134 7.1 6.2L11.2929 10.3929C11.6834 10.7834 12.3166 10.7834 12.7071 10.3929L16.9 6.2C17.2866 5.8134 17.9134 5.8134 18.3 6.2V6.2C18.6866 6.5866 18.6866 7.2134 18.3 7.6L14.1071 11.7929C13.7166 12.1834 13.7166 12.8166 14.1071 13.2071L18.3 17.4C18.6866 17.7866 18.6866 18.4134 18.3 18.8V18.8C17.9134 19.1866 17.2866 19.1866 16.9 18.8L12.7071 14.6071C12.3166 14.2166 11.6834 14.2166 11.2929 14.6071L7.1 18.8Z" fill="#F9D38F"/>
</svg>
