<svg width="24" height="24" viewBox="0 0 24 24" fill="none" xmlns="http://www.w3.org/2000/svg">
<path d="M17.928 19.634H20.066C20.2541 19.637 20.44 19.5943 20.608 19.5098C20.776 19.4252 20.9211 19.3012 21.0307 19.1484C21.1404 18.9956 21.2114 18.8185 21.2378 18.6323C21.2641 18.4461 21.245 18.2562 21.182 18.079C20.6368 16.9121 19.7738 15.9226 18.6918 15.2239C17.6098 14.5252 16.3528 14.1458 15.065 14.129M15.065 11.37C15.5462 11.3701 16.0228 11.2755 16.4675 11.0914C16.9121 10.9073 17.3161 10.6374 17.6565 10.2972C17.9968 9.95695 18.2668 9.55299 18.451 9.10839C18.6352 8.66378 18.73 8.18725 18.73 7.706C18.7313 7.22392 18.6375 6.74631 18.4539 6.30055C18.2703 5.85479 18.0005 5.44965 17.66 5.10834C17.3196 4.76704 16.9151 4.49628 16.4698 4.31158C16.0245 4.12688 15.5471 4.03187 15.065 4.032M9.34 11.485C10.4417 11.4824 11.4974 11.0428 12.2755 10.2627C13.0535 9.4826 13.4903 8.42575 13.49 7.324C13.49 6.22309 13.0527 5.16727 12.2742 4.3888C11.4957 3.61034 10.4399 3.173 9.339 3.173C8.23809 3.173 7.18226 3.61034 6.4038 4.3888C5.62534 5.16727 5.188 6.22309 5.188 7.324C5.188 8.42575 5.62505 9.4825 6.40325 10.2624C7.18146 11.0423 8.23726 11.4816 9.339 11.484M14.025 20.827C14.3772 20.8265 14.7225 20.7286 15.0224 20.5439C15.3224 20.3593 15.5654 20.0953 15.7246 19.781C15.8837 19.4668 15.9528 19.1146 15.9241 18.7636C15.8954 18.4125 15.7701 18.0762 15.562 17.792C14.8331 16.8245 13.8948 16.0344 12.8173 15.4809C11.7398 14.9274 10.551 14.6249 9.34 14.596C8.12891 14.625 6.94009 14.9277 5.86258 15.4814C4.78506 16.035 3.84678 16.8253 3.118 17.793C2.91066 18.0773 2.7859 18.4133 2.75751 18.764C2.72912 19.1147 2.79819 19.4664 2.95711 19.7803C3.11603 20.0942 3.3586 20.358 3.65805 20.5428C3.9575 20.7275 4.30217 20.8258 4.654 20.827H14.025Z" stroke="#383913" stroke-width="1.5" stroke-linecap="round" stroke-linejoin="round"/>
</svg>
