<svg width="80" height="38" viewBox="0 0 80 38" fill="none" xmlns="http://www.w3.org/2000/svg">
<path d="M7.89598 14.0468H0C1.16043 14.0468 2.39655 15.1568 2.69927 16.3172L6.83646 31.7055H10.5448L6.40761 16.3172C6.10489 15.1568 6.73555 14.0468 7.89598 14.0468ZM17.8353 14.0468H13.4459C14.5054 14.0468 15.2622 14.9297 15.1361 15.964L15.0604 16.3172C15.4388 15.1568 16.6749 14.0468 17.8353 14.0468Z" fill="#836349"/>
<path d="M20.6751 24.4654C20.6751 21.085 22.4914 19.1426 23.1978 19.1426C19.6912 19.1426 16.8406 21.9932 16.8406 25.4997C16.8406 29.0062 19.6912 31.8569 23.1978 31.8569C24.9636 31.8569 26.5529 31.1505 27.6881 29.9901C22.6932 31.7812 20.6751 27.871 20.6751 24.4654ZM25.342 25.3231L22.6932 25.4997H28.8233C28.8233 21.5643 26.1998 19.1426 23.7275 19.1426C25.4682 19.5967 25.3673 23.7591 25.342 25.3231Z" fill="#836349"/>
<path d="M45.7081 29.4099V23.7087C45.7081 20.1517 43.362 18.966 40.7889 19.1426C41.4448 19.1426 42.5295 19.7985 42.5295 20.7067V29.4099C42.5295 30.5703 41.5709 31.6803 40.4105 31.6803H47.8019C46.6415 31.6803 45.7081 30.5703 45.7081 29.4099ZM37.686 29.4099V19.3192C35.4156 20.4796 34.0029 21.0851 32.237 21.0851H32.4136C33.574 21.0851 34.5074 22.1951 34.5074 23.3555V29.4099C34.5074 30.5703 33.574 31.6803 32.4136 31.6803H39.7798C38.6194 31.6803 37.686 30.5703 37.686 29.4099Z" fill="#836349"/>
<path d="M41.4327 3.90563C41.4327 1.48386 43.7284 0.878418 44.4347 0.878418C42.5427 0.878418 38.9353 2.0893 38.9353 5.24265C38.9353 8.39599 43.0472 10.6159 49.1773 9.05189C44.5104 9.75824 41.4327 6.35262 41.4327 3.90563ZM56.0642 29.4099V11.7259C56.0642 5.01561 51.6496 1.00455 45.3681 0.878418C51.2207 1.10546 52.8857 8.54735 52.8857 10.9691V29.4099C52.8857 30.5703 51.9271 31.6803 50.7919 31.6803H58.1581C56.9976 31.6803 56.0642 30.5703 56.0642 29.4099ZM73.6221 2.56861C69.3588 2.56861 60.0501 6.37785 56.8211 7.21034C63.2287 5.72196 69.6363 4.68766 72.8905 4.68766C76.8511 4.68766 80.0045 6.73103 79.954 8.97621C80.3072 6.12558 78.6674 2.56861 73.6221 2.56861ZM56.8211 7.21034C56.6445 7.26079 56.4931 7.28602 56.3417 7.33647C56.4679 7.31124 56.6445 7.26079 56.8211 7.21034Z" fill="#836349"/>
<path d="M67.2907 19.3192H59.8993C61.0597 19.3192 62.3211 20.4292 62.649 21.5896L65.0203 29.8892C65.3231 30.9487 66.3069 31.6803 67.3916 31.6803H68.7034L65.8276 21.5392C65.5249 20.404 66.1303 19.3192 67.2907 19.3192ZM74.329 19.3192H69.763C70.8477 19.3192 71.6045 20.2778 71.4531 21.3373L71.4027 21.5896L71.5036 21.3373C71.9325 20.2778 73.2442 19.3192 74.329 19.3192ZM65.2221 34.9346C65.096 34.1021 64.3897 33.4714 63.5067 33.4714C62.5733 33.4714 61.7913 34.2282 61.7913 35.1868C61.7913 35.9436 62.2706 36.5995 62.9517 36.8266C65.3483 37.8861 67.5178 35.868 67.9719 34.3039C67.316 35.1112 65.424 36.0446 65.2221 34.9346Z" fill="#836349"/>
</svg>
