<svg width="150" height="69" viewBox="0 0 150 69" fill="none" xmlns="http://www.w3.org/2000/svg">
<path d="M14.805 25.2127H0C2.17581 25.2127 4.49352 27.2939 5.06113 29.4697L12.8184 58.3228H19.7715L12.0143 29.4697C11.4467 27.2939 12.6292 25.2127 14.805 25.2127ZM33.4412 25.2127H25.211C27.1976 25.2127 28.6166 26.8682 28.3801 28.8075L28.2382 29.4697C28.9477 27.2939 31.2654 25.2127 33.4412 25.2127Z" fill="#FEFFE5"/>
<path d="M38.7658 44.7476C38.7658 38.4094 42.1714 34.7673 43.4958 34.7673C36.9211 34.7673 31.5762 40.1122 31.5762 46.6869C31.5762 53.2616 36.9211 58.6066 43.4958 58.6066C46.8068 58.6066 49.7867 57.2821 51.9153 55.1063C42.5498 58.4647 38.7658 51.1331 38.7658 44.7476ZM47.5163 46.3558L42.5498 46.6869H54.0438C54.0438 39.3081 49.1245 34.7673 44.4891 34.7673C47.7528 35.6187 47.5636 43.4232 47.5163 46.3558Z" fill="#FEFFE5"/>
<path d="M85.7027 54.0185V43.3287C85.7027 36.6594 81.3038 34.4363 76.4792 34.7674C77.709 34.7674 79.7429 35.9972 79.7429 37.7V54.0185C79.7429 56.1943 77.9455 58.2756 75.7697 58.2756H89.6286C87.4528 58.2756 85.7027 56.1943 85.7027 54.0185ZM70.6612 54.0185V35.0985C66.4042 37.2743 63.7554 38.4095 60.4444 38.4095H60.7755C62.9513 38.4095 64.7014 40.4907 64.7014 42.6665V54.0185C64.7014 56.1943 62.9513 58.2756 60.7755 58.2756H74.5872C72.4114 58.2756 70.6612 56.1943 70.6612 54.0185Z" fill="#FEFFE5"/>
<path d="M77.6864 6.19799C77.6864 1.65718 81.9907 0.521973 83.3151 0.521973C79.7676 0.521973 73.0036 2.79238 73.0036 8.70491C73.0036 14.6174 80.7136 18.7798 92.2075 15.8472C83.457 17.1716 77.6864 10.7861 77.6864 6.19799ZM105.12 54.0185V20.8611C105.12 8.2792 96.843 0.758474 85.0652 0.521973C96.0389 0.947674 99.1607 14.9012 99.1607 19.442V54.0185C99.1607 56.1943 97.3633 58.2755 95.2347 58.2755H109.046C106.871 58.2755 105.12 56.1943 105.12 54.0185ZM138.041 3.69109C130.048 3.69109 112.594 10.8334 106.539 12.3943C118.554 9.60361 130.568 7.6643 136.67 7.6643C144.096 7.6643 150.008 11.4956 149.914 15.7053C150.576 10.3604 147.501 3.69109 138.041 3.69109ZM106.539 12.3943C106.208 12.4889 105.925 12.5362 105.641 12.6308C105.877 12.5835 106.208 12.4889 106.539 12.3943Z" fill="#FEFFE5"/>
<path d="M126.17 35.0985H112.311C114.487 35.0985 116.852 37.1797 117.467 39.3555L121.913 54.9172C122.481 56.9038 124.325 58.2756 126.359 58.2756H128.819L123.427 39.2609C122.859 37.1324 123.994 35.0985 126.17 35.0985ZM139.367 35.0985H130.806C132.839 35.0985 134.258 36.8959 133.975 38.8825L133.88 39.3555L134.069 38.8825C134.873 36.8959 137.333 35.0985 139.367 35.0985ZM122.292 64.3773C122.055 62.8164 120.731 61.6339 119.075 61.6339C117.325 61.6339 115.859 63.0529 115.859 64.8503C115.859 66.2693 116.757 67.4991 118.035 67.9248C122.528 69.9114 126.596 66.1274 127.447 63.1948C126.217 64.7084 122.67 66.4585 122.292 64.3773Z" fill="#FEFFE5"/>
</svg>
